<svg width="300" height="300" viewBox="0 0 300 300" fill="none" xmlns="http://www.w3.org/2000/svg">
<rect width="300" height="300" fill="#EEEFFD"/>
<rect x="12" y="12" width="276" height="276" stroke="#474BFF" stroke-width="24"/>
<path d="M68.7 123.1C65.6333 123.1 62.8667 122.5 60.4 121.3C57.9333 120.033 56.1667 118.6 55.1 117V122H40V47H55.1V77C56.1667 75.4 57.9333 74 60.4 72.8C62.8667 71.5333 65.6333 70.9 68.7 70.9C75.1667 70.9 80.6333 73.4667 85.1 78.6C89.6333 83.7333 91.9 89.8667 91.9 97C91.9 104.133 89.6333 110.267 85.1 115.4C80.6333 120.533 75.1667 123.1 68.7 123.1ZM57 105.9C59.1333 108.233 61.9 109.4 65.3 109.4C68.7 109.4 71.4333 108.233 73.5 105.9C75.6333 103.567 76.7 100.6 76.7 97C76.7 93.4 75.6333 90.4333 73.5 88.1C71.4333 85.7667 68.7 84.6 65.3 84.6C61.9 84.6 59.1333 85.7667 57 88.1C54.9333 90.4333 53.9 93.4 53.9 97C53.9 100.6 54.9333 103.567 57 105.9Z" fill="#474BFF"/>
<path d="M121.528 123.1C115.061 123.1 109.561 120.533 105.028 115.4C100.561 110.267 98.3281 104.133 98.3281 97C98.3281 89.8667 100.561 83.7333 105.028 78.6C109.561 73.4667 115.061 70.9 121.528 70.9C127.261 70.9 131.795 72.9333 135.128 77V72H150.228V122H135.128V117C131.795 121.067 127.261 123.1 121.528 123.1ZM116.628 105.9C118.761 108.233 121.528 109.4 124.928 109.4C128.328 109.4 131.061 108.233 133.128 105.9C135.261 103.567 136.328 100.6 136.328 97C136.328 93.4 135.261 90.4333 133.128 88.1C131.061 85.7667 128.328 84.6 124.928 84.6C121.528 84.6 118.761 85.7667 116.628 88.1C114.561 90.4333 113.528 93.4 113.528 97C113.528 100.6 114.561 103.567 116.628 105.9Z" fill="#474BFF"/>
<path d="M182.856 123.1C176.19 123.1 170.69 121.467 166.356 118.2C162.09 114.867 159.823 110.7 159.556 105.7H175.456C175.59 107.633 176.39 109.133 177.856 110.2C179.323 111.2 181.156 111.7 183.356 111.7C187.09 111.7 188.956 110.633 188.956 108.5C188.956 107.433 188.523 106.633 187.656 106.1C186.856 105.5 185.39 104.9 183.256 104.3L173.156 101.7C164.756 99.5 160.556 94.2667 160.556 86C160.556 81.5333 162.423 77.9 166.156 75.1C169.89 72.3 174.99 70.9 181.456 70.9C187.19 70.9 191.956 72.3333 195.756 75.2C199.623 78 201.756 81.9667 202.156 87.1H186.956C186.356 84.0333 184.423 82.5 181.156 82.5C177.756 82.5 176.056 83.5667 176.056 85.7C176.056 87.5667 177.756 88.8667 181.156 89.6L190.256 92C195.256 93.3333 198.856 95.2667 201.056 97.8C203.256 100.333 204.356 103.633 204.356 107.7C204.356 112.3 202.356 116.033 198.356 118.9C194.356 121.7 189.19 123.1 182.856 123.1Z" fill="#474BFF"/>
<path d="M237.133 123.1C229.399 123.1 223.033 120.633 218.033 115.7C213.099 110.767 210.633 104.5 210.633 96.9C210.633 89.4333 213.133 83.2333 218.133 78.3C223.199 73.3667 229.533 70.9 237.133 70.9C240.799 70.9 244.233 71.5333 247.433 72.8C250.699 74.0667 253.566 75.9 256.033 78.3C258.566 80.7 260.533 83.8 261.933 87.6C263.333 91.4 263.966 95.7 263.833 100.5H225.333C225.599 103.233 226.799 105.533 228.933 107.4C231.066 109.2 234.066 110.1 237.933 110.1C240.133 110.1 242.133 109.667 243.933 108.8C245.733 107.867 246.933 106.733 247.533 105.4H263.333C261.733 110.667 258.533 114.933 253.733 118.2C248.933 121.467 243.399 123.1 237.133 123.1ZM236.733 82.9C233.866 82.9 231.466 83.6333 229.533 85.1C227.666 86.5667 226.399 88.5 225.733 90.9H247.133C246.399 88.1667 245.033 86.1667 243.033 84.9C241.099 83.5667 238.999 82.9 236.733 82.9Z" fill="#474BFF"/>
<path d="M127.765 251.126C120.759 258.375 111.383 262 99.6373 262C87.8916 262 78.5156 258.375 71.5094 251.126C64.5031 243.877 61 234.66 61 223.476C61 219.955 61.5667 216.589 62.7 213.379C63.8334 210.065 65.0698 207.32 66.4092 205.146C67.8517 202.867 70.376 199.087 73.9821 193.806L104.583 150H133.329L106.437 188.524C114.783 189.249 122.15 192.77 128.538 199.087C135.029 205.301 138.275 213.482 138.275 223.631C138.275 234.712 134.772 243.877 127.765 251.126ZM99.6373 239.476C103.965 239.476 107.571 237.974 110.456 234.971C113.341 231.968 114.783 228.291 114.783 223.942C114.783 219.592 113.341 215.916 110.456 212.913C107.571 209.909 103.965 208.408 99.6373 208.408C95.1039 208.408 91.4462 209.909 88.6643 212.913C85.8824 215.812 84.4915 219.489 84.4915 223.942C84.4915 228.395 85.8824 232.123 88.6643 235.126C91.4462 238.026 95.1039 239.476 99.6373 239.476Z" fill="#474BFF"/>
<path d="M200.599 260.291V236.369H146.97V217.417L202.917 150H223.936V214.932H238V236.369H223.936V260.291H200.599ZM175.408 214.932H200.599V184.641L175.408 214.932Z" fill="#474BFF"/>
</svg>
