<svg width="512" height="512" viewBox="0 0 512 512" fill="none" xmlns="http://www.w3.org/2000/svg">
<path d="M385.584 366C430.477 366 467 329.495 467 284.625C467 266.168 460.643 248.091 449.1 233.726C441.148 223.829 430.951 215.933 419.517 210.673C422.611 200.514 424.174 189.962 424.174 179.15C424.174 153.221 414.873 128.125 397.984 108.485C383.768 91.952 364.94 80.1204 344.124 74.4593C341.445 55.8094 332.809 38.606 319.189 25.1382C302.793 8.92704 281.063 0 258 0C234.937 0 213.206 8.92704 196.811 25.1372C183.191 38.6051 174.555 55.8085 171.876 74.4584C151.06 80.1195 132.233 91.951 118.016 108.484C101.127 128.124 91.8255 153.22 91.8255 179.149C91.8255 189.961 93.3877 200.513 96.4834 210.672C85.0494 215.932 74.8519 223.828 66.8999 233.725C55.3567 248.091 49 266.167 49 284.624C49 329.494 85.5229 365.999 130.415 365.999H243.765H272.236H385.584V366ZM130.415 337.543C101.221 337.543 77.4703 313.804 77.4703 284.625C77.4703 259.932 94.2494 238.754 118.273 233.122L135.396 229.108L127.901 213.205C122.855 202.501 120.297 191.043 120.297 179.15C120.297 160.024 127.156 141.515 139.608 127.033C151.935 112.698 168.941 103.154 187.494 100.158L199.316 98.2496L199.458 86.2814C199.838 54.397 226.1 28.4572 258 28.4572C289.9 28.4572 316.161 54.397 316.541 86.2805L316.683 98.2486L328.505 100.157C347.058 103.153 364.064 112.697 376.391 127.032C388.844 141.515 395.702 160.023 395.702 179.149C395.702 191.042 393.144 202.5 388.099 213.205L380.603 229.107L397.726 233.121C421.75 238.753 438.529 259.931 438.529 284.624C438.529 313.803 414.778 337.542 385.584 337.542H272.236V258.403L324.374 206.29L304.242 186.168L272.235 218.159V123.866H243.763V166.835L211.756 134.845L191.624 154.967L243.762 207.08V269.482L211.755 237.49L191.623 257.612L243.762 309.725V337.54H130.415V337.543Z" fill="#474BFF"/>
<path d="M48.2291 512C37.3698 512 28.2835 508.953 20.9701 502.858C13.6567 496.653 10 487.511 10 475.433H36.0955C36.0955 479.312 37.2036 482.303 39.4198 484.409C41.7468 486.403 44.6832 487.401 48.2291 487.401C51.6642 487.401 54.5452 486.403 56.8722 484.409C59.1992 482.414 60.3627 479.644 60.3627 476.098V391.995H86.7907V477.76C86.7907 489.063 83.134 497.595 75.8206 503.357C68.5072 509.119 59.31 512 48.2291 512Z" fill="#474BFF"/>
<path d="M166.865 512C153.125 512 142.044 508.011 133.623 500.033C125.201 492.054 120.769 482.747 120.326 472.109H146.753C147.64 476.985 149.856 480.807 153.402 483.578C157.059 486.237 161.546 487.567 166.865 487.567C171.408 487.567 175.065 486.625 177.835 484.741C180.716 482.857 182.157 480.309 182.157 477.095C182.157 471.444 177.004 467.178 166.699 464.297L155.23 461.305C145.368 458.646 137.612 454.324 131.96 448.341C126.309 442.357 123.428 434.877 123.317 425.902C123.317 414.932 126.974 406.233 134.287 399.807C141.712 393.269 151.574 390 163.873 390C176.284 390 186.368 393.767 194.124 401.302C201.881 408.727 205.981 417.259 206.424 426.899H180.162C178.944 422.578 176.838 419.42 173.846 417.425C170.854 415.431 167.53 414.433 163.873 414.433C159.774 414.433 156.449 415.264 153.901 416.926C151.352 418.589 150.022 420.971 149.912 424.074C149.801 427.176 150.909 429.725 153.236 431.719C155.674 433.714 159.33 435.376 164.206 436.706L177.669 440.196C187.531 442.856 195.177 447.233 200.607 453.327C206.147 459.421 208.917 467.067 208.917 476.264C208.917 486.459 205.039 494.991 197.282 501.861C189.526 508.62 179.387 512 166.865 512Z" fill="#474BFF"/>
<path d="M274 475.932C280.76 482.913 288.904 486.403 298.434 486.403C307.963 486.403 316.052 482.913 322.701 475.932C329.349 468.951 332.674 460.64 332.674 451C332.674 441.36 329.349 433.049 322.701 426.068C316.052 419.087 307.963 415.597 298.434 415.597C288.904 415.597 280.76 419.087 274 426.068C267.352 433.049 264.028 441.36 264.028 451C264.028 460.64 267.352 468.951 274 475.932ZM341.483 494.049C329.626 506.016 315.277 512 298.434 512C281.591 512 267.186 506.072 255.218 494.215C243.362 482.248 237.433 467.843 237.433 451C237.433 434.157 243.362 419.807 255.218 407.951C267.186 395.984 281.591 390 298.434 390C315.277 390 329.626 395.984 341.483 407.951C353.45 419.918 359.434 434.268 359.434 451C359.434 467.732 353.45 482.082 341.483 494.049Z" fill="#474BFF"/>
<path d="M501 510.005H478.229L420.719 437.038V510.005H394.291V391.995H417.062L474.406 464.962V391.995H501V510.005Z" fill="#474BFF"/>
</svg>
