<svg width="300" height="300" viewBox="0 0 300 300" fill="none" xmlns="http://www.w3.org/2000/svg">
<path d="M284.621 36.3262H150L120.085 44.7051L150 53.084H284.621V36.3262Z" fill="#A5A7FF"/>
<path d="M15.3789 36.3262H150V53.084H15.3789V36.3262Z" fill="#A5A7FF"/>
<path d="M284.621 128.494H150L120.085 136.873L150 145.252H284.621V128.494Z" fill="#A5A7FF"/>
<path d="M15.3789 128.494H150V145.252H15.3789V128.494Z" fill="#A5A7FF"/>
<path d="M284.621 220.662H150L120.085 229.041L150 237.42H284.621V220.662Z" fill="#A5A7FF"/>
<path d="M15.3789 220.662H150V237.42H15.3789V220.662Z" fill="#A5A7FF"/>
<path d="M99.7266 7C90.5098 7 82.9688 14.541 82.9688 23.7578V65.6523C82.9688 74.8691 90.5098 82.4102 99.7266 82.4102C108.943 82.4102 116.484 74.8691 116.484 65.6523V23.7578C116.484 14.541 108.943 7 99.7266 7Z" fill="#6063FF"/>
<path d="M200.273 7C191.057 7 183.516 14.541 183.516 23.7578L161.172 44.7051L183.516 65.6523C183.516 74.8691 191.057 82.4102 200.273 82.4102C209.49 82.4102 217.031 74.8691 217.031 65.6523V23.7578C217.031 14.541 209.49 7 200.273 7Z" fill="#3438FF"/>
<path d="M166.758 7C157.541 7 150 14.541 150 23.7578V65.6523C150 74.8691 157.541 82.4102 166.758 82.4102C175.975 82.4102 183.516 74.8691 183.516 65.6523V23.7578C183.516 14.541 175.975 7 166.758 7Z" fill="#474BFF"/>
<path d="M99.7266 191.336C90.5098 191.336 82.9688 198.877 82.9688 208.094V249.988C82.9688 259.205 90.5098 266.746 99.7266 266.746C108.943 266.746 116.484 259.205 116.484 249.988V208.094C116.484 198.877 108.943 191.336 99.7266 191.336Z" fill="#6063FF"/>
<path d="M200.273 191.336C191.057 191.336 183.516 198.877 183.516 208.094L161.172 229.041L183.516 249.988C183.516 259.205 191.057 266.746 200.273 266.746C209.49 266.746 217.031 259.205 217.031 249.988V208.094C217.031 198.877 209.49 191.336 200.273 191.336Z" fill="#3438FF"/>
<path d="M166.758 191.336C157.541 191.336 150 198.877 150 208.094V249.988C150 259.205 157.541 266.746 166.758 266.746C175.975 266.746 183.516 259.205 183.516 249.988V208.094C183.516 198.877 175.975 191.336 166.758 191.336Z" fill="#474BFF"/>
<path d="M200.273 99.168C209.49 99.168 217.031 106.709 217.031 115.926V157.82C217.031 167.037 209.49 174.578 200.273 174.578C191.057 174.578 183.516 167.037 183.516 157.82V115.926C183.516 106.709 191.057 99.168 200.273 99.168Z" fill="#3438FF"/>
<path d="M99.7266 99.168C108.943 99.168 116.484 106.709 116.484 115.926L138.828 136.873L116.484 157.82C116.484 167.037 108.943 174.578 99.7266 174.578C90.5098 174.578 82.9688 167.037 82.9688 157.82V115.926C82.9688 106.709 90.5098 99.168 99.7266 99.168Z" fill="#6063FF"/>
<path d="M133.242 99.168C142.459 99.168 150 106.709 150 115.926V157.82C150 167.037 142.459 174.578 133.242 174.578C124.025 174.578 116.484 167.037 116.484 157.82V115.926C116.484 106.709 124.025 99.168 133.242 99.168Z" fill="#474BFF"/>
<path d="M23.7578 7C14.5017 7 7 14.5017 7 23.7578V293H40.5156V23.7578C40.5156 14.5017 33.0139 7 23.7578 7Z" fill="#A5A7FF"/>
<path d="M276.242 7C266.986 7 259.484 14.5017 259.484 23.7578V293H293V23.7578C293 14.5017 285.498 7 276.242 7Z" fill="#A5A7FF"/>
</svg>
