<svg width="300" height="300" viewBox="0 0 300 300" fill="none" xmlns="http://www.w3.org/2000/svg">
<path d="M280.371 39.791V260.209C280.371 271.324 271.324 280.371 260.209 280.371H39.791C28.6758 280.371 19.6289 271.324 19.6289 260.209V39.791C19.6289 28.6758 28.6758 19.6289 39.791 19.6289H260.209C271.324 19.6289 280.371 28.6758 280.371 39.791V39.791Z" fill="#DEDFFF"/>
<path d="M280.371 39.791V260.209C280.371 271.324 271.324 280.371 260.209 280.371H242.631C253.764 280.371 262.793 271.342 262.793 260.209V39.791C262.793 28.6582 253.764 19.6289 242.631 19.6289H260.209C271.324 19.6289 280.371 28.6758 280.371 39.791V39.791Z" fill="#DEDFFF"/>
<path d="M280.371 39.791V65.4434H19.6289V39.791C19.6289 28.6758 28.6758 19.6289 39.791 19.6289H260.209C271.324 19.6289 280.371 28.6758 280.371 39.791Z" fill="#989AFF"/>
<path d="M62.6953 38.7275H43.7818C41.3549 38.7275 39.3873 40.6951 39.3873 43.1221C39.3873 45.549 41.3549 47.5166 43.7818 47.5166H62.6953C65.1223 47.5166 67.0898 45.549 67.0898 43.1221C67.0898 40.6951 65.1223 38.7275 62.6953 38.7275Z" fill="#474BFF"/>
<path d="M103.37 38.7275H84.4565C82.0295 38.7275 80.0619 40.6951 80.0619 43.1221C80.0619 45.549 82.0295 47.5166 84.4565 47.5166H103.37C105.797 47.5166 107.764 45.549 107.764 43.1221C107.764 40.6951 105.797 38.7275 103.37 38.7275Z" fill="#474BFF"/>
<path d="M144.475 38.7275H125.562C123.135 38.7275 121.167 40.6951 121.167 43.1221C121.167 45.549 123.135 47.5166 125.562 47.5166H144.475C146.902 47.5166 148.87 45.549 148.87 43.1221C148.87 40.6951 146.902 38.7275 144.475 38.7275Z" fill="#474BFF"/>
<path d="M300 85.2129V164.684C300 167.109 298.031 169.078 295.605 169.078H4.39453C1.96875 169.078 0 167.109 0 164.684V85.2129C0 82.7871 1.96875 80.8184 4.39453 80.8184H295.605C298.031 80.8184 300 82.7871 300 85.2129Z" fill="#474BFF"/>
<path d="M300 85.2129V164.684C300 167.109 298.031 169.078 295.605 169.078H275.684C278.109 169.078 280.078 167.109 280.078 164.684V85.2129C280.078 82.7871 278.109 80.8184 275.684 80.8184H295.605C298.031 80.8184 300 82.7871 300 85.2129Z" fill="#474BFF"/>
<path d="M130.507 186.613H50.073C47.646 186.613 45.6784 188.58 45.6784 191.007C45.6784 193.434 47.646 195.402 50.073 195.402H130.507C132.934 195.402 134.901 193.434 134.901 191.007C134.901 188.58 132.934 186.613 130.507 186.613Z" fill="#474BFF"/>
<path d="M130.506 239.205H112.215C109.788 239.205 107.821 241.173 107.821 243.6C107.821 246.027 109.788 247.995 112.215 247.995H130.506C132.933 247.995 134.9 246.027 134.9 243.6C134.9 241.173 132.933 239.205 130.506 239.205Z" fill="#474BFF"/>
<path d="M91.8721 239.205H50.0713C47.6443 239.205 45.6768 241.173 45.6768 243.6C45.6768 246.027 47.6443 247.995 50.0713 247.995H91.8721C94.299 247.995 96.2666 246.027 96.2666 243.6C96.2666 241.173 94.2996 239.205 91.8721 239.205Z" fill="#474BFF"/>
<path d="M50.0496 221.886H112.905C115.332 221.886 117.3 219.918 117.3 217.491C117.3 215.064 115.332 213.097 112.905 213.097H50.0496C47.6227 213.097 45.6551 215.064 45.6551 217.491C45.6551 219.918 47.6227 221.886 50.0496 221.886Z" fill="#474BFF"/>
<path d="M249.612 239.205H169.178C166.751 239.205 164.783 241.173 164.783 243.6C164.783 246.027 166.751 247.995 169.178 247.995H249.612C252.039 247.995 254.006 246.027 254.006 243.6C254.006 241.173 252.039 239.205 249.612 239.205Z" fill="#474BFF"/>
<path d="M231.321 195.402H249.612C252.039 195.402 254.006 193.434 254.006 191.007C254.006 188.58 252.039 186.613 249.612 186.613H231.321C228.894 186.613 226.927 188.58 226.927 191.007C226.927 193.434 228.894 195.402 231.321 195.402Z" fill="#474BFF"/>
<path d="M169.178 195.402H210.978C213.405 195.402 215.372 193.434 215.372 191.007C215.372 188.58 213.405 186.613 210.978 186.613H169.178C166.751 186.613 164.783 188.58 164.783 191.007C164.783 193.434 166.751 195.402 169.178 195.402Z" fill="#474BFF"/>
<path d="M169.155 221.511H232.011C234.438 221.511 236.406 219.543 236.406 217.116C236.406 214.689 234.438 212.722 232.011 212.722H169.155C166.729 212.722 164.761 214.689 164.761 217.116C164.761 219.544 166.729 221.511 169.155 221.511Z" fill="#474BFF"/>
<path d="M280.371 39.791V65.4434H262.793V39.791C262.793 28.6582 253.764 19.6289 242.631 19.6289H260.209C271.324 19.6289 280.371 28.6758 280.371 39.791Z" fill="#989AFF"/>
<path d="M77.1 150L68.5 123.6L60 150H44.8L28.3 100H44.5L53.2 130.7L62.7 100H74.3L83.8 130.7L92.5 100H108.7L92.3 150H77.1ZM158.057 150L149.457 123.6L140.957 150H125.757L109.257 100H125.457L134.157 130.7L143.657 100H155.257L164.757 130.7L173.457 100H189.657L173.257 150H158.057ZM239.014 150L230.414 123.6L221.914 150H206.714L190.214 100H206.414L215.114 130.7L224.614 100H236.214L245.714 130.7L254.414 100H270.614L254.214 150H239.014Z" fill="white"/>
</svg>
